<svg xmlns="http://www.w3.org/2000/svg" viewBox="0 0 16 16" width="32" height="32">
  <!-- Red (#E63946) -->
  <path d="M6,0 h1 v1 h-1 z M5,1 h3 v1 h-3 z M4,2 h5 v1 h-5 z M3,3 h2 v1 h-2 z M6,3 h4 v1 h-4 z M2,4 h9 v1 h-9 z M3,12 h7 v1 h-7 z" fill="#E63946" />
  
  <!-- Yellow/Bell (#FFD166) -->
  <rect x="5" y="3" width="1" height="1" fill="#FFD166" />
  
  <!-- Gold/Bell (#F4A261) -->
  <path d="M5,13 h2 v2 h-2 z" fill="#F4A261" />
  
  <!-- White (#FFFFFF) -->
  <path d="M2,8 h2 v2 h-2 z M6,8 h2 v2 h-2 z" fill="#FFFFFF" />
  
  <!-- Blue (#007BFF) -->
  <path d="M1,6 h4 v2 h-4 z M6,6 h6 v2 h-6 z M1,8 h1 v2 h-1 z M4,8 h2 v2 h-2 z M8,8 h4 v2 h-4 z M1,10 h11 v1 h-11 z M2,11 h9 v1 h-9 z" fill="#007BFF" />
  
  <!-- Black (#000000) -->
  <path d="M1,5 h11 v1 h-11 z M0,6 h1 v5 h-1 z M5,6 h1 v2 h-1 z M12,6 h1 v5 h-1 z M1,11 h1 v1 h-1 z M11,11 h1 v1 h-1 z M2,12 h1 v1 h-1 z M10,12 h1 v1 h-1 z M3,13 h2 v1 h-2 z M7,13 h3 v1 h-3 z" fill="#000000" />
</svg>
